<svg xmlns="http://www.w3.org/2000/svg" viewBox="333.2 336.4 358.2 358.2" fill="#171817">
<g transform="translate(0.000000,1024.000000) scale(0.100000,-0.100000)" fill="#171817" stroke="none">
<path d="M5760 5893 c-54 -9 -150 -45 -203 -77 -117 -71 -191 -150 -261 -278
-159 -293 -106 -709 119 -933 133 -132 258 -185 455 -192 195 -8 317 25 442
117 90 66 128 119 128 178 0 37 -6 50 -34 78 -29 29 -41 34 -83 34 -33 0 -63
-8 -93 -24 -161 -88 -169 -91 -270 -91 -87 0 -101 3 -160 32 -201 99 -319 351
-276 591 29 164 117 292 245 355 61 30 73 32 166 32 89 0 107 -3 160 -28 61
-28 102 -61 135 -107 l18 -25 -102 0 c-86 0 -107 -3 -143 -23 -100 -53 -166
-159 -167 -267 -1 -101 19 -152 88 -221 77 -77 134 -99 240 -92 167 11 283
137 294 318 15 271 -196 553 -460 615 -59 14 -180 18 -238 8z m539 -479 c26
-21 31 -33 31 -69 0 -36 -5 -48 -31 -69 -41 -35 -83 -34 -120 3 -87 87 26 214
120 135z"/>
<path d="M4385 5774 c-141 -22 -255 -83 -371 -199 -102 -102 -155 -188 -200
-325 -24 -76 -27 -100 -28 -230 -1 -164 11 -226 69 -349 91 -191 277 -337 494
-386 105 -24 321 -17 408 13 167 58 313 188 313 278 0 35 -26 78 -60 98 -48
28 -99 21 -175 -25 -111 -68 -163 -82 -280 -77 -123 6 -184 30 -271 111 -101
94 -152 211 -161 372 -12 225 85 419 252 501 55 27 69 29 170 29 100 0 115 -3
167 -28 53 -26 176 -142 164 -154 -3 -3 -28 0 -57 7 -70 17 -184 8 -235 -18
-96 -49 -156 -152 -156 -269 0 -128 64 -228 182 -285 65 -31 186 -31 255 0
205 93 260 361 127 617 -72 137 -198 244 -349 296 -57 19 -198 32 -258 23z
m512 -489 c13 -9 27 -34 33 -56 9 -34 8 -45 -7 -72 -27 -45 -64 -61 -108 -47
-46 15 -65 44 -65 98 0 57 33 92 87 92 21 0 48 -7 60 -15z"/>
</g>
</svg>
